<svg xmlns="http://www.w3.org/2000/svg" viewBox="0 0 920 298" width="920" height="298" style="font-family:system-ui,-apple-system,'Segoe UI',sans-serif;background:#fcfcfb"><text x="16" y="24" font-size="15" font-weight="600" fill="#0b0b0b">7 · Purse remaining over auction progress: Stage A vs S4</text><text x="16" y="44" font-size="12" fill="#52514e">share of the starting purse left (learner), mean over 1,500 auctions per algorithm and condition</text><line x1="46" x2="910" y1="236.0" y2="236.0" stroke="#e1e0d9"/><text x="42" y="240.0" font-size="10" fill="#898781" text-anchor="end">0.00</text><line x1="46" x2="910" y1="196.0" y2="196.0" stroke="#e1e0d9"/><text x="42" y="200.0" font-size="10" fill="#898781" text-anchor="end">0.25</text><line x1="46" x2="910" y1="156.0" y2="156.0" stroke="#e1e0d9"/><text x="42" y="160.0" font-size="10" fill="#898781" text-anchor="end">0.50</text><line x1="46" x2="910" y1="116.0" y2="116.0" stroke="#e1e0d9"/><text x="42" y="120.0" font-size="10" fill="#898781" text-anchor="end">0.75</text><line x1="46" x2="910" y1="76.0" y2="76.0" stroke="#e1e0d9"/><text x="42" y="80.0" font-size="10" fill="#898781" text-anchor="end">1.00</text><text x="125.0" y="64" font-size="12" font-weight="600" fill="#52514e" text-anchor="middle">PPO</text><text x="56.0" y="252" font-size="9.5" fill="#898781" text-anchor="middle">0.1</text><text x="111.2" y="252" font-size="9.5" fill="#898781" text-anchor="middle">0.5</text><text x="180.2" y="252" font-size="9.5" fill="#898781" text-anchor="middle">1.0</text><text x="194.0" y="252" font-size="9.5" fill="#898781" text-anchor="middle">RA</text><polyline points="56.0,172.9 69.8,185.3 83.6,216.7 97.4,230.3 111.2,232.4 125.0,234.4 138.8,234.9 152.6,235.4 166.4,235.7 180.2,235.8 194.0,235.8" fill="none" stroke="#52514e" stroke-width="2"/><circle cx="56.0" cy="172.928" r="6" fill="transparent"><title>PPO A @ 0.1: 0.39</title></circle><circle cx="69.8" cy="185.312" r="6" fill="transparent"><title>PPO A @ 0.2: 0.32</title></circle><circle cx="83.6" cy="216.688" r="6" fill="transparent"><title>PPO A @ 0.3: 0.12</title></circle><circle cx="97.4" cy="230.272" r="6" fill="transparent"><title>PPO A @ 0.4: 0.04</title></circle><circle cx="111.2" cy="232.38400000000001" r="6" fill="transparent"><title>PPO A @ 0.5: 0.02</title></circle><circle cx="125.0" cy="234.416" r="6" fill="transparent"><title>PPO A @ 0.6: 0.01</title></circle><circle cx="138.8" cy="234.864" r="6" fill="transparent"><title>PPO A @ 0.7: 0.01</title></circle><circle cx="152.6" cy="235.36" r="6" fill="transparent"><title>PPO A @ 0.8: 0.00</title></circle><circle cx="166.4" cy="235.728" r="6" fill="transparent"><title>PPO A @ 0.9: 0.00</title></circle><circle cx="180.2" cy="235.776" r="6" fill="transparent"><title>PPO A @ 1.0: 0.00</title></circle><circle cx="194.0" cy="235.808" r="6" fill="transparent"><title>PPO A @ RA: 0.00</title></circle><text x="197.0" y="246.808" font-size="9.5" fill="#52514e">A</text><polyline points="56.0,89.3 69.8,89.4 83.6,104.2 97.4,147.8 111.2,197.2 125.0,223.7 138.8,226.1 152.6,231.8 166.4,234.3 180.2,234.6 194.0,235.0" fill="none" stroke="#1baf7a" stroke-width="2"/><circle cx="56.0" cy="89.28" r="6" fill="transparent"><title>PPO S4 @ 0.1: 0.92</title></circle><circle cx="69.8" cy="89.392" r="6" fill="transparent"><title>PPO S4 @ 0.2: 0.92</title></circle><circle cx="83.6" cy="104.22399999999999" r="6" fill="transparent"><title>PPO S4 @ 0.3: 0.82</title></circle><circle cx="97.4" cy="147.84" r="6" fill="transparent"><title>PPO S4 @ 0.4: 0.55</title></circle><circle cx="111.2" cy="197.216" r="6" fill="transparent"><title>PPO S4 @ 0.5: 0.24</title></circle><circle cx="125.0" cy="223.712" r="6" fill="transparent"><title>PPO S4 @ 0.6: 0.08</title></circle><circle cx="138.8" cy="226.07999999999998" r="6" fill="transparent"><title>PPO S4 @ 0.7: 0.06</title></circle><circle cx="152.6" cy="231.76" r="6" fill="transparent"><title>PPO S4 @ 0.8: 0.03</title></circle><circle cx="166.4" cy="234.336" r="6" fill="transparent"><title>PPO S4 @ 0.9: 0.01</title></circle><circle cx="180.2" cy="234.624" r="6" fill="transparent"><title>PPO S4 @ 1.0: 0.01</title></circle><circle cx="194.0" cy="234.96" r="6" fill="transparent"><title>PPO S4 @ RA: 0.01</title></circle><text x="197.0" y="231.96" font-size="9.5" fill="#1baf7a">S4</text><text x="297.0" y="64" font-size="12" font-weight="600" fill="#52514e" text-anchor="middle">A2C</text><text x="228.0" y="252" font-size="9.5" fill="#898781" text-anchor="middle">0.1</text><text x="283.2" y="252" font-size="9.5" fill="#898781" text-anchor="middle">0.5</text><text x="352.2" y="252" font-size="9.5" fill="#898781" text-anchor="middle">1.0</text><text x="366.0" y="252" font-size="9.5" fill="#898781" text-anchor="middle">RA</text><polyline points="228.0,229.3 241.8,233.6 255.6,235.3 269.4,235.7 283.2,235.7 297.0,235.8 310.8,235.8 324.6,235.9 338.4,235.9 352.2,236.0 366.0,236.0" fill="none" stroke="#52514e" stroke-width="2"/><circle cx="228.0" cy="229.28" r="6" fill="transparent"><title>A2C A @ 0.1: 0.04</title></circle><circle cx="241.8" cy="233.568" r="6" fill="transparent"><title>A2C A @ 0.2: 0.02</title></circle><circle cx="255.6" cy="235.344" r="6" fill="transparent"><title>A2C A @ 0.3: 0.00</title></circle><circle cx="269.4" cy="235.68" r="6" fill="transparent"><title>A2C A @ 0.4: 0.00</title></circle><circle cx="283.2" cy="235.728" r="6" fill="transparent"><title>A2C A @ 0.5: 0.00</title></circle><circle cx="297.0" cy="235.776" r="6" fill="transparent"><title>A2C A @ 0.6: 0.00</title></circle><circle cx="310.8" cy="235.808" r="6" fill="transparent"><title>A2C A @ 0.7: 0.00</title></circle><circle cx="324.6" cy="235.888" r="6" fill="transparent"><title>A2C A @ 0.8: 0.00</title></circle><circle cx="338.4" cy="235.936" r="6" fill="transparent"><title>A2C A @ 0.9: 0.00</title></circle><circle cx="352.2" cy="235.952" r="6" fill="transparent"><title>A2C A @ 1.0: 0.00</title></circle><circle cx="366.0" cy="235.952" r="6" fill="transparent"><title>A2C A @ RA: 0.00</title></circle><text x="369.0" y="246.952" font-size="9.5" fill="#52514e">A</text><polyline points="228.0,158.3 241.8,195.6 255.6,226.2 269.4,228.8 283.2,230.9 297.0,231.5 310.8,231.5 324.6,232.4 338.4,232.5 352.2,232.5 366.0,232.5" fill="none" stroke="#1baf7a" stroke-width="2"/><circle cx="228.0" cy="158.288" r="6" fill="transparent"><title>A2C S4 @ 0.1: 0.49</title></circle><circle cx="241.8" cy="195.552" r="6" fill="transparent"><title>A2C S4 @ 0.2: 0.25</title></circle><circle cx="255.6" cy="226.208" r="6" fill="transparent"><title>A2C S4 @ 0.3: 0.06</title></circle><circle cx="269.4" cy="228.784" r="6" fill="transparent"><title>A2C S4 @ 0.4: 0.05</title></circle><circle cx="283.2" cy="230.896" r="6" fill="transparent"><title>A2C S4 @ 0.5: 0.03</title></circle><circle cx="297.0" cy="231.472" r="6" fill="transparent"><title>A2C S4 @ 0.6: 0.03</title></circle><circle cx="310.8" cy="231.51999999999998" r="6" fill="transparent"><title>A2C S4 @ 0.7: 0.03</title></circle><circle cx="324.6" cy="232.38400000000001" r="6" fill="transparent"><title>A2C S4 @ 0.8: 0.02</title></circle><circle cx="338.4" cy="232.528" r="6" fill="transparent"><title>A2C S4 @ 0.9: 0.02</title></circle><circle cx="352.2" cy="232.528" r="6" fill="transparent"><title>A2C S4 @ 1.0: 0.02</title></circle><circle cx="366.0" cy="232.528" r="6" fill="transparent"><title>A2C S4 @ RA: 0.02</title></circle><text x="369.0" y="229.528" font-size="9.5" fill="#1baf7a">S4</text><text x="469.0" y="64" font-size="12" font-weight="600" fill="#52514e" text-anchor="middle">D3QN</text><text x="400.0" y="252" font-size="9.5" fill="#898781" text-anchor="middle">0.1</text><text x="455.2" y="252" font-size="9.5" fill="#898781" text-anchor="middle">0.5</text><text x="524.2" y="252" font-size="9.5" fill="#898781" text-anchor="middle">1.0</text><text x="538.0" y="252" font-size="9.5" fill="#898781" text-anchor="middle">RA</text><polyline points="400.0,223.4 413.8,230.9 427.6,234.6 441.4,235.6 455.2,235.7 469.0,235.7 482.8,235.7 496.6,235.8 510.4,235.8 524.2,235.8 538.0,235.8" fill="none" stroke="#52514e" stroke-width="2"/><circle cx="400.0" cy="223.44" r="6" fill="transparent"><title>D3QN A @ 0.1: 0.08</title></circle><circle cx="413.8" cy="230.928" r="6" fill="transparent"><title>D3QN A @ 0.2: 0.03</title></circle><circle cx="427.6" cy="234.64000000000001" r="6" fill="transparent"><title>D3QN A @ 0.3: 0.01</title></circle><circle cx="441.4" cy="235.56799999999998" r="6" fill="transparent"><title>D3QN A @ 0.4: 0.00</title></circle><circle cx="455.2" cy="235.664" r="6" fill="transparent"><title>D3QN A @ 0.5: 0.00</title></circle><circle cx="469.0" cy="235.728" r="6" fill="transparent"><title>D3QN A @ 0.6: 0.00</title></circle><circle cx="482.8" cy="235.744" r="6" fill="transparent"><title>D3QN A @ 0.7: 0.00</title></circle><circle cx="496.6" cy="235.76000000000002" r="6" fill="transparent"><title>D3QN A @ 0.8: 0.00</title></circle><circle cx="510.4" cy="235.776" r="6" fill="transparent"><title>D3QN A @ 0.9: 0.00</title></circle><circle cx="524.2" cy="235.776" r="6" fill="transparent"><title>D3QN A @ 1.0: 0.00</title></circle><circle cx="538.0" cy="235.824" r="6" fill="transparent"><title>D3QN A @ RA: 0.00</title></circle><text x="541.0" y="246.824" font-size="9.5" fill="#52514e">A</text><polyline points="400.0,187.0 413.8,209.8 427.6,232.3 441.4,234.9 455.2,235.1 469.0,235.4 482.8,235.5 496.6,235.7 510.4,235.8 524.2,235.8 538.0,235.9" fill="none" stroke="#1baf7a" stroke-width="2"/><circle cx="400.0" cy="187.04" r="6" fill="transparent"><title>D3QN S4 @ 0.1: 0.31</title></circle><circle cx="413.8" cy="209.76" r="6" fill="transparent"><title>D3QN S4 @ 0.2: 0.16</title></circle><circle cx="427.6" cy="232.272" r="6" fill="transparent"><title>D3QN S4 @ 0.3: 0.02</title></circle><circle cx="441.4" cy="234.896" r="6" fill="transparent"><title>D3QN S4 @ 0.4: 0.01</title></circle><circle cx="455.2" cy="235.136" r="6" fill="transparent"><title>D3QN S4 @ 0.5: 0.01</title></circle><circle cx="469.0" cy="235.392" r="6" fill="transparent"><title>D3QN S4 @ 0.6: 0.00</title></circle><circle cx="482.8" cy="235.504" r="6" fill="transparent"><title>D3QN S4 @ 0.7: 0.00</title></circle><circle cx="496.6" cy="235.68" r="6" fill="transparent"><title>D3QN S4 @ 0.8: 0.00</title></circle><circle cx="510.4" cy="235.792" r="6" fill="transparent"><title>D3QN S4 @ 0.9: 0.00</title></circle><circle cx="524.2" cy="235.808" r="6" fill="transparent"><title>D3QN S4 @ 1.0: 0.00</title></circle><circle cx="538.0" cy="235.856" r="6" fill="transparent"><title>D3QN S4 @ RA: 0.00</title></circle><text x="541.0" y="232.856" font-size="9.5" fill="#1baf7a">S4</text><text x="641.0" y="64" font-size="12" font-weight="600" fill="#52514e" text-anchor="middle">QR-DQN</text><text x="572.0" y="252" font-size="9.5" fill="#898781" text-anchor="middle">0.1</text><text x="627.2" y="252" font-size="9.5" fill="#898781" text-anchor="middle">0.5</text><text x="696.2" y="252" font-size="9.5" fill="#898781" text-anchor="middle">1.0</text><text x="710.0" y="252" font-size="9.5" fill="#898781" text-anchor="middle">RA</text><polyline points="572.0,212.5 585.8,223.3 599.6,234.1 613.4,235.4 627.2,235.6 641.0,235.6 654.8,235.7 668.6,235.7 682.4,235.8 696.2,235.8 710.0,235.9" fill="none" stroke="#52514e" stroke-width="2"/><circle cx="572.0" cy="212.544" r="6" fill="transparent"><title>QR-DQN A @ 0.1: 0.15</title></circle><circle cx="585.8" cy="223.328" r="6" fill="transparent"><title>QR-DQN A @ 0.2: 0.08</title></circle><circle cx="599.6" cy="234.096" r="6" fill="transparent"><title>QR-DQN A @ 0.3: 0.01</title></circle><circle cx="613.4" cy="235.408" r="6" fill="transparent"><title>QR-DQN A @ 0.4: 0.00</title></circle><circle cx="627.2" cy="235.584" r="6" fill="transparent"><title>QR-DQN A @ 0.5: 0.00</title></circle><circle cx="641.0" cy="235.648" r="6" fill="transparent"><title>QR-DQN A @ 0.6: 0.00</title></circle><circle cx="654.8" cy="235.696" r="6" fill="transparent"><title>QR-DQN A @ 0.7: 0.00</title></circle><circle cx="668.6" cy="235.744" r="6" fill="transparent"><title>QR-DQN A @ 0.8: 0.00</title></circle><circle cx="682.4" cy="235.792" r="6" fill="transparent"><title>QR-DQN A @ 0.9: 0.00</title></circle><circle cx="696.2" cy="235.792" r="6" fill="transparent"><title>QR-DQN A @ 1.0: 0.00</title></circle><circle cx="710.0" cy="235.856" r="6" fill="transparent"><title>QR-DQN A @ RA: 0.00</title></circle><text x="713.0" y="246.856" font-size="9.5" fill="#52514e">A</text><polyline points="572.0,176.0 585.8,205.2 599.6,229.0 613.4,234.4 627.2,234.8 641.0,235.4 654.8,235.5 668.6,235.6 682.4,235.8 696.2,235.8 710.0,235.8" fill="none" stroke="#1baf7a" stroke-width="2"/><circle cx="572.0" cy="176.016" r="6" fill="transparent"><title>QR-DQN S4 @ 0.1: 0.37</title></circle><circle cx="585.8" cy="205.248" r="6" fill="transparent"><title>QR-DQN S4 @ 0.2: 0.19</title></circle><circle cx="599.6" cy="228.95999999999998" r="6" fill="transparent"><title>QR-DQN S4 @ 0.3: 0.04</title></circle><circle cx="613.4" cy="234.368" r="6" fill="transparent"><title>QR-DQN S4 @ 0.4: 0.01</title></circle><circle cx="627.2" cy="234.768" r="6" fill="transparent"><title>QR-DQN S4 @ 0.5: 0.01</title></circle><circle cx="641.0" cy="235.376" r="6" fill="transparent"><title>QR-DQN S4 @ 0.6: 0.00</title></circle><circle cx="654.8" cy="235.488" r="6" fill="transparent"><title>QR-DQN S4 @ 0.7: 0.00</title></circle><circle cx="668.6" cy="235.616" r="6" fill="transparent"><title>QR-DQN S4 @ 0.8: 0.00</title></circle><circle cx="682.4" cy="235.76000000000002" r="6" fill="transparent"><title>QR-DQN S4 @ 0.9: 0.00</title></circle><circle cx="696.2" cy="235.776" r="6" fill="transparent"><title>QR-DQN S4 @ 1.0: 0.00</title></circle><circle cx="710.0" cy="235.824" r="6" fill="transparent"><title>QR-DQN S4 @ RA: 0.00</title></circle><text x="713.0" y="232.824" font-size="9.5" fill="#1baf7a">S4</text><text x="813.0" y="64" font-size="12" font-weight="600" fill="#52514e" text-anchor="middle">OpenAI-ES</text><text x="744.0" y="252" font-size="9.5" fill="#898781" text-anchor="middle">0.1</text><text x="799.2" y="252" font-size="9.5" fill="#898781" text-anchor="middle">0.5</text><text x="868.2" y="252" font-size="9.5" fill="#898781" text-anchor="middle">1.0</text><text x="882.0" y="252" font-size="9.5" fill="#898781" text-anchor="middle">RA</text><polyline points="744.0,222.2 757.8,232.9 771.6,235.4 785.4,235.7 799.2,235.7 813.0,235.8 826.8,235.8 840.6,235.9 854.4,235.9 868.2,235.9 882.0,235.9" fill="none" stroke="#52514e" stroke-width="2"/><circle cx="744.0" cy="222.22400000000002" r="6" fill="transparent"><title>OpenAI-ES A @ 0.1: 0.09</title></circle><circle cx="757.8" cy="232.928" r="6" fill="transparent"><title>OpenAI-ES A @ 0.2: 0.02</title></circle><circle cx="771.6" cy="235.376" r="6" fill="transparent"><title>OpenAI-ES A @ 0.3: 0.00</title></circle><circle cx="785.4" cy="235.68" r="6" fill="transparent"><title>OpenAI-ES A @ 0.4: 0.00</title></circle><circle cx="799.2" cy="235.744" r="6" fill="transparent"><title>OpenAI-ES A @ 0.5: 0.00</title></circle><circle cx="813.0" cy="235.776" r="6" fill="transparent"><title>OpenAI-ES A @ 0.6: 0.00</title></circle><circle cx="826.8" cy="235.776" r="6" fill="transparent"><title>OpenAI-ES A @ 0.7: 0.00</title></circle><circle cx="840.6" cy="235.87199999999999" r="6" fill="transparent"><title>OpenAI-ES A @ 0.8: 0.00</title></circle><circle cx="854.4" cy="235.92000000000002" r="6" fill="transparent"><title>OpenAI-ES A @ 0.9: 0.00</title></circle><circle cx="868.2" cy="235.92000000000002" r="6" fill="transparent"><title>OpenAI-ES A @ 1.0: 0.00</title></circle><circle cx="882.0" cy="235.936" r="6" fill="transparent"><title>OpenAI-ES A @ RA: 0.00</title></circle><text x="885.0" y="246.936" font-size="9.5" fill="#52514e">A</text><polyline points="744.0,86.2 757.8,123.7 771.6,171.9 785.4,189.1 799.2,205.3 813.0,205.6 826.8,205.6 840.6,207.5 854.4,207.5 868.2,207.5 882.0,207.5" fill="none" stroke="#1baf7a" stroke-width="2"/><circle cx="744.0" cy="86.19200000000001" r="6" fill="transparent"><title>OpenAI-ES S4 @ 0.1: 0.94</title></circle><circle cx="757.8" cy="123.696" r="6" fill="transparent"><title>OpenAI-ES S4 @ 0.2: 0.70</title></circle><circle cx="771.6" cy="171.87199999999999" r="6" fill="transparent"><title>OpenAI-ES S4 @ 0.3: 0.40</title></circle><circle cx="785.4" cy="189.10399999999998" r="6" fill="transparent"><title>OpenAI-ES S4 @ 0.4: 0.29</title></circle><circle cx="799.2" cy="205.328" r="6" fill="transparent"><title>OpenAI-ES S4 @ 0.5: 0.19</title></circle><circle cx="813.0" cy="205.60000000000002" r="6" fill="transparent"><title>OpenAI-ES S4 @ 0.6: 0.19</title></circle><circle cx="826.8" cy="205.60000000000002" r="6" fill="transparent"><title>OpenAI-ES S4 @ 0.7: 0.19</title></circle><circle cx="840.6" cy="207.488" r="6" fill="transparent"><title>OpenAI-ES S4 @ 0.8: 0.18</title></circle><circle cx="854.4" cy="207.536" r="6" fill="transparent"><title>OpenAI-ES S4 @ 0.9: 0.18</title></circle><circle cx="868.2" cy="207.536" r="6" fill="transparent"><title>OpenAI-ES S4 @ 1.0: 0.18</title></circle><circle cx="882.0" cy="207.536" r="6" fill="transparent"><title>OpenAI-ES S4 @ RA: 0.18</title></circle><text x="885.0" y="204.536" font-size="9.5" fill="#1baf7a">S4</text><text x="485.0" y="268" font-size="11" fill="#898781" text-anchor="middle">main-round progress (RA = end of the re-auction)</text><text x="14" y="156.0" font-size="11" fill="#898781" transform="rotate(-90 14 156.0)" text-anchor="middle">purse left (share)</text><circle cx="50" cy="286" r="4.5" fill="#52514e"/><text x="59" y="290" font-size="11" fill="#52514e">A</text><circle cx="80.6" cy="286" r="4.5" fill="#1baf7a"/><text x="89.6" y="290" font-size="11" fill="#52514e">S4</text></svg>