<svg xmlns="http://www.w3.org/2000/svg" viewBox="0 0 760 284" width="760" height="284" style="font-family:system-ui,-apple-system,'Segoe UI',sans-serif;background:#fcfcfb"><text x="16" y="24" font-size="15" font-weight="600" fill="#0b0b0b">11 · Keeper requirement closed by a forced bid (per 500 episodes)</text><text x="16" y="44" font-size="12" fill="#52514e">learner</text><line x1="150.0" x2="150.0" y1="64" y2="220" stroke="#e1e0d9" stroke-width="1"/><text x="150.0" y="236" font-size="11" fill="#898781" text-anchor="middle">-12.5</text><line x1="246.66666666666666" x2="246.66666666666666" y1="64" y2="220" stroke="#e1e0d9" stroke-width="1"/><text x="246.66666666666666" y="236" font-size="11" fill="#898781" text-anchor="middle">17.7</text><line x1="343.3333333333333" x2="343.3333333333333" y1="64" y2="220" stroke="#e1e0d9" stroke-width="1"/><text x="343.3333333333333" y="236" font-size="11" fill="#898781" text-anchor="middle">47.9</text><line x1="440.0" x2="440.0" y1="64" y2="220" stroke="#e1e0d9" stroke-width="1"/><text x="440.0" y="236" font-size="11" fill="#898781" text-anchor="middle">78.1</text><line x1="536.6666666666666" x2="536.6666666666666" y1="64" y2="220" stroke="#e1e0d9" stroke-width="1"/><text x="536.6666666666666" y="236" font-size="11" fill="#898781" text-anchor="middle">108.3</text><line x1="633.3333333333333" x2="633.3333333333333" y1="64" y2="220" stroke="#e1e0d9" stroke-width="1"/><text x="633.3333333333333" y="236" font-size="11" fill="#898781" text-anchor="middle">138.5</text><line x1="730.0" x2="730.0" y1="64" y2="220" stroke="#e1e0d9" stroke-width="1"/><text x="730.0" y="236" font-size="11" fill="#898781" text-anchor="middle">168.8</text><line x1="190.0" x2="190.0" y1="64" y2="220" stroke="#c3c2b7" stroke-width="1.5"/><text x="440.0" y="254" font-size="11" fill="#898781" text-anchor="middle">per 500 episodes</text><text x="140" y="89.0" font-size="12" fill="#52514e" text-anchor="end">PPO</text><g><title>PPO · A: +0.000 [+0.000, +0.000]</title><line x1="190.0" x2="190.0" y1="76.0" y2="76.0" stroke="#52514e" stroke-width="2"/><circle cx="190.0" cy="76.0" r="4.5" fill="#52514e" stroke="#fcfcfb" stroke-width="2"/></g><g><title>PPO · C1: +0.167 [+0.167, +0.167]</title><line x1="190.53343999999998" x2="190.53343999999998" y1="82.0" y2="82.0" stroke="#2a78d6" stroke-width="2"/><circle cx="190.53343999999998" cy="82.0" r="4.5" fill="#2a78d6" stroke="#fcfcfb" stroke-width="2"/></g><g><title>PPO · C4: +0.472 [+0.472, +0.472]</title><line x1="191.51104" x2="191.51104" y1="88.0" y2="88.0" stroke="#eb6834" stroke-width="2"/><circle cx="191.51104" cy="88.0" r="4.5" fill="#eb6834" stroke="#fcfcfb" stroke-width="2"/></g><g><title>PPO · S4: +0.000 [+0.000, +0.000]</title><line x1="190.0" x2="190.0" y1="94.0" y2="94.0" stroke="#1baf7a" stroke-width="2"/><circle cx="190.0" cy="94.0" r="4.5" fill="#1baf7a" stroke="#fcfcfb" stroke-width="2"/></g><text x="140" y="119.0" font-size="12" fill="#52514e" text-anchor="end">A2C</text><g><title>A2C · A: +57.333 [+57.333, +57.333]</title><line x1="373.46656" x2="373.46656" y1="106.0" y2="106.0" stroke="#52514e" stroke-width="2"/><circle cx="373.46656" cy="106.0" r="4.5" fill="#52514e" stroke="#fcfcfb" stroke-width="2"/></g><g><title>A2C · C1: +156.250 [+156.250, +156.250]</title><line x1="690.0" x2="690.0" y1="112.0" y2="112.0" stroke="#2a78d6" stroke-width="2"/><circle cx="690.0" cy="112.0" r="4.5" fill="#2a78d6" stroke="#fcfcfb" stroke-width="2"/></g><g><title>A2C · C4: +100.694 [+100.694, +100.694]</title><line x1="512.22208" x2="512.22208" y1="118.0" y2="118.0" stroke="#eb6834" stroke-width="2"/><circle cx="512.22208" cy="118.0" r="4.5" fill="#eb6834" stroke="#fcfcfb" stroke-width="2"/></g><g><title>A2C · S4: +114.000 [+114.000, +114.000]</title><line x1="554.8" x2="554.8" y1="124.0" y2="124.0" stroke="#1baf7a" stroke-width="2"/><circle cx="554.8" cy="124.0" r="4.5" fill="#1baf7a" stroke="#fcfcfb" stroke-width="2"/></g><text x="140" y="149.0" font-size="12" fill="#52514e" text-anchor="end">D3QN</text><g><title>D3QN · A: +5.000 [+5.000, +5.000]</title><line x1="206.0" x2="206.0" y1="136.0" y2="136.0" stroke="#52514e" stroke-width="2"/><circle cx="206.0" cy="136.0" r="4.5" fill="#52514e" stroke="#fcfcfb" stroke-width="2"/></g><g><title>D3QN · C1: +22.528 [+22.528, +22.528]</title><line x1="262.08896" x2="262.08896" y1="142.0" y2="142.0" stroke="#2a78d6" stroke-width="2"/><circle cx="262.08896" cy="142.0" r="4.5" fill="#2a78d6" stroke="#fcfcfb" stroke-width="2"/></g><g><title>D3QN · C4: +32.778 [+32.778, +32.778]</title><line x1="294.88896" x2="294.88896" y1="148.0" y2="148.0" stroke="#eb6834" stroke-width="2"/><circle cx="294.88896" cy="148.0" r="4.5" fill="#eb6834" stroke="#fcfcfb" stroke-width="2"/></g><g><title>D3QN · S4: +80.667 [+80.667, +80.667]</title><line x1="448.13344" x2="448.13344" y1="154.0" y2="154.0" stroke="#1baf7a" stroke-width="2"/><circle cx="448.13344" cy="154.0" r="4.5" fill="#1baf7a" stroke="#fcfcfb" stroke-width="2"/></g><text x="140" y="179.0" font-size="12" fill="#52514e" text-anchor="end">QR-DQN</text><g><title>QR-DQN · A: +9.667 [+9.667, +9.667]</title><line x1="220.93344" x2="220.93344" y1="166.0" y2="166.0" stroke="#52514e" stroke-width="2"/><circle cx="220.93344" cy="166.0" r="4.5" fill="#52514e" stroke="#fcfcfb" stroke-width="2"/></g><g><title>QR-DQN · C1: +22.361 [+22.361, +22.361]</title><line x1="261.55552" x2="261.55552" y1="172.0" y2="172.0" stroke="#2a78d6" stroke-width="2"/><circle cx="261.55552" cy="172.0" r="4.5" fill="#2a78d6" stroke="#fcfcfb" stroke-width="2"/></g><g><title>QR-DQN · C4: +32.528 [+32.528, +32.528]</title><line x1="294.08896" x2="294.08896" y1="178.0" y2="178.0" stroke="#eb6834" stroke-width="2"/><circle cx="294.08896" cy="178.0" r="4.5" fill="#eb6834" stroke="#fcfcfb" stroke-width="2"/></g><g><title>QR-DQN · S4: +43.333 [+43.333, +43.333]</title><line x1="328.66656" x2="328.66656" y1="184.0" y2="184.0" stroke="#1baf7a" stroke-width="2"/><circle cx="328.66656" cy="184.0" r="4.5" fill="#1baf7a" stroke="#fcfcfb" stroke-width="2"/></g><text x="140" y="209.0" font-size="12" fill="#52514e" text-anchor="end">OpenAI-ES</text><g><title>OpenAI-ES · A: +53.333 [+53.333, +53.333]</title><line x1="360.66656" x2="360.66656" y1="196.0" y2="196.0" stroke="#52514e" stroke-width="2"/><circle cx="360.66656" cy="196.0" r="4.5" fill="#52514e" stroke="#fcfcfb" stroke-width="2"/></g><g><title>OpenAI-ES · C1: +117.028 [+117.028, +117.028]</title><line x1="564.48896" x2="564.48896" y1="202.0" y2="202.0" stroke="#2a78d6" stroke-width="2"/><circle cx="564.48896" cy="202.0" r="4.5" fill="#2a78d6" stroke="#fcfcfb" stroke-width="2"/></g><g><title>OpenAI-ES · C4: +50.417 [+50.417, +50.417]</title><line x1="351.33344" x2="351.33344" y1="208.0" y2="208.0" stroke="#eb6834" stroke-width="2"/><circle cx="351.33344" cy="208.0" r="4.5" fill="#eb6834" stroke="#fcfcfb" stroke-width="2"/></g><g><title>OpenAI-ES · S4: +13.667 [+13.667, +13.667]</title><line x1="233.73344" x2="233.73344" y1="214.0" y2="214.0" stroke="#1baf7a" stroke-width="2"/><circle cx="233.73344" cy="214.0" r="4.5" fill="#1baf7a" stroke="#fcfcfb" stroke-width="2"/></g><circle cx="150" cy="56" r="4.5" fill="#52514e"/><text x="159" y="60" font-size="11" fill="#52514e">A</text><circle cx="195.2" cy="56" r="4.5" fill="#2a78d6"/><text x="204.2" y="60" font-size="11" fill="#52514e">C1</text><circle cx="247.6" cy="56" r="4.5" fill="#eb6834"/><text x="256.6" y="60" font-size="11" fill="#52514e">C4</text><circle cx="300.0" cy="56" r="4.5" fill="#1baf7a"/><text x="309.0" y="60" font-size="11" fill="#52514e">S4</text></svg>