<svg xmlns="http://www.w3.org/2000/svg" viewBox="0 0 734 400" width="734" height="400" style="font-family:system-ui,-apple-system,'Segoe UI',sans-serif;background:#fcfcfb"><text x="16" y="24" font-size="15" font-weight="600" fill="#0b0b0b">4 · C1 → C4 escalation: C4 transfer − C1 transfer</text><text x="16" y="44" font-size="12" fill="#52514e">extra XI change when the opponent is multiplied from one RL seat to four (more red = disproportionate)</text><text x="430.0" y="90" font-size="11" fill="#898781" text-anchor="middle">opponent →</text><text x="16" y="215.0" font-size="11" fill="#898781">learner ↓</text><text x="206.0" y="72" font-size="12" fill="#52514e" text-anchor="middle">PPO</text><text x="318.0" y="72" font-size="12" fill="#52514e" text-anchor="middle">A2C</text><text x="430.0" y="72" font-size="12" fill="#52514e" text-anchor="middle">D3QN</text><text x="542.0" y="72" font-size="12" fill="#52514e" text-anchor="middle">QR-DQN</text><text x="654.0" y="72" font-size="12" fill="#52514e" text-anchor="middle">OpenAI-ES</text><text x="140" y="127.0" font-size="12" fill="#52514e" text-anchor="end">PPO</text><rect x="151" y="101" width="110" height="44" rx="4" fill="#fcfcfb" stroke="#e1e0d9"/><text x="206.0" y="127.0" font-size="12" fill="#898781" text-anchor="middle">—</text><g><title>PPO vs A2C: -0.618 (95% CI -0.656 to -0.581)</title><rect x="263" y="101" width="110" height="44" rx="4" fill="#e2c4c1"/><text x="318.0" y="123.0" font-size="13" font-weight="600" fill="#0b0b0b" text-anchor="middle">-0.62</text><text x="318.0" y="137.0" font-size="10" fill="#0b0b0b" text-anchor="middle">[-0.66, -0.58]</text></g><g><title>PPO vs D3QN: -0.327 (95% CI -0.362 to -0.294)</title><rect x="375" y="101" width="110" height="44" rx="4" fill="#e9d8d5"/><text x="430.0" y="123.0" font-size="13" font-weight="600" fill="#0b0b0b" text-anchor="middle">-0.33</text><text x="430.0" y="137.0" font-size="10" fill="#0b0b0b" text-anchor="middle">[-0.36, -0.29]</text></g><g><title>PPO vs QR-DQN: -0.130 (95% CI -0.167 to -0.093)</title><rect x="487" y="101" width="110" height="44" rx="4" fill="#ede6e3"/><text x="542.0" y="123.0" font-size="13" font-weight="600" fill="#0b0b0b" text-anchor="middle">-0.13</text><text x="542.0" y="137.0" font-size="10" fill="#0b0b0b" text-anchor="middle">[-0.17, -0.09]</text></g><g><title>PPO vs OpenAI-ES: -0.423 (95% CI -0.453 to -0.390)</title><rect x="599" y="101" width="110" height="44" rx="4" fill="#e6d1cf"/><text x="654.0" y="123.0" font-size="13" font-weight="600" fill="#0b0b0b" text-anchor="middle">-0.42</text><text x="654.0" y="137.0" font-size="10" fill="#0b0b0b" text-anchor="middle">[-0.45, -0.39]</text></g><text x="140" y="173.0" font-size="12" fill="#52514e" text-anchor="end">A2C</text><g><title>A2C vs PPO: -0.128 (95% CI -0.172 to -0.083)</title><rect x="151" y="147" width="110" height="44" rx="4" fill="#ede6e3"/><text x="206.0" y="169.0" font-size="13" font-weight="600" fill="#0b0b0b" text-anchor="middle">-0.13</text><text x="206.0" y="183.0" font-size="10" fill="#0b0b0b" text-anchor="middle">[-0.17, -0.08]</text></g><rect x="263" y="147" width="110" height="44" rx="4" fill="#fcfcfb" stroke="#e1e0d9"/><text x="318.0" y="173.0" font-size="12" fill="#898781" text-anchor="middle">—</text><g><title>A2C vs D3QN: -1.690 (95% CI -1.752 to -1.630)</title><rect x="375" y="147" width="110" height="44" rx="4" fill="#ca7977"/><text x="430.0" y="169.0" font-size="13" font-weight="600" fill="#ffffff" text-anchor="middle">-1.69</text><text x="430.0" y="183.0" font-size="10" fill="#ffffff" text-anchor="middle">[-1.75, -1.63]</text></g><g><title>A2C vs QR-DQN: -1.371 (95% CI -1.430 to -1.315)</title><rect x="487" y="147" width="110" height="44" rx="4" fill="#d18f8d"/><text x="542.0" y="169.0" font-size="13" font-weight="600" fill="#0b0b0b" text-anchor="middle">-1.37</text><text x="542.0" y="183.0" font-size="10" fill="#0b0b0b" text-anchor="middle">[-1.43, -1.31]</text></g><g><title>A2C vs OpenAI-ES: -0.528 (95% CI -0.569 to -0.486)</title><rect x="599" y="147" width="110" height="44" rx="4" fill="#e4cac8"/><text x="654.0" y="169.0" font-size="13" font-weight="600" fill="#0b0b0b" text-anchor="middle">-0.53</text><text x="654.0" y="183.0" font-size="10" fill="#0b0b0b" text-anchor="middle">[-0.57, -0.49]</text></g><text x="140" y="219.0" font-size="12" fill="#52514e" text-anchor="end">D3QN</text><g><title>D3QN vs PPO: -0.266 (95% CI -0.301 to -0.232)</title><rect x="151" y="193" width="110" height="44" rx="4" fill="#eadcda"/><text x="206.0" y="215.0" font-size="13" font-weight="600" fill="#0b0b0b" text-anchor="middle">-0.27</text><text x="206.0" y="229.0" font-size="10" fill="#0b0b0b" text-anchor="middle">[-0.30, -0.23]</text></g><g><title>D3QN vs A2C: -0.828 (95% CI -0.860 to -0.796)</title><rect x="263" y="193" width="110" height="44" rx="4" fill="#ddb5b3"/><text x="318.0" y="215.0" font-size="13" font-weight="600" fill="#0b0b0b" text-anchor="middle">-0.83</text><text x="318.0" y="229.0" font-size="10" fill="#0b0b0b" text-anchor="middle">[-0.86, -0.80]</text></g><rect x="375" y="193" width="110" height="44" rx="4" fill="#fcfcfb" stroke="#e1e0d9"/><text x="430.0" y="219.0" font-size="12" fill="#898781" text-anchor="middle">—</text><g><title>D3QN vs QR-DQN: -1.505 (95% CI -1.556 to -1.453)</title><rect x="487" y="193" width="110" height="44" rx="4" fill="#ce8684"/><text x="542.0" y="215.0" font-size="13" font-weight="600" fill="#ffffff" text-anchor="middle">-1.51</text><text x="542.0" y="229.0" font-size="10" fill="#ffffff" text-anchor="middle">[-1.56, -1.45]</text></g><g><title>D3QN vs OpenAI-ES: -0.169 (95% CI -0.197 to -0.143)</title><rect x="599" y="193" width="110" height="44" rx="4" fill="#ece3e0"/><text x="654.0" y="215.0" font-size="13" font-weight="600" fill="#0b0b0b" text-anchor="middle">-0.17</text><text x="654.0" y="229.0" font-size="10" fill="#0b0b0b" text-anchor="middle">[-0.20, -0.14]</text></g><text x="140" y="265.0" font-size="12" fill="#52514e" text-anchor="end">QR-DQN</text><g><title>QR-DQN vs PPO: -0.338 (95% CI -0.370 to -0.305)</title><rect x="151" y="239" width="110" height="44" rx="4" fill="#e8d7d5"/><text x="206.0" y="261.0" font-size="13" font-weight="600" fill="#0b0b0b" text-anchor="middle">-0.34</text><text x="206.0" y="275.0" font-size="10" fill="#0b0b0b" text-anchor="middle">[-0.37, -0.31]</text></g><g><title>QR-DQN vs A2C: -0.863 (95% CI -0.900 to -0.826)</title><rect x="263" y="239" width="110" height="44" rx="4" fill="#ddb2b0"/><text x="318.0" y="261.0" font-size="13" font-weight="600" fill="#0b0b0b" text-anchor="middle">-0.86</text><text x="318.0" y="275.0" font-size="10" fill="#0b0b0b" text-anchor="middle">[-0.90, -0.83]</text></g><g><title>QR-DQN vs D3QN: -1.647 (95% CI -1.689 to -1.602)</title><rect x="375" y="239" width="110" height="44" rx="4" fill="#cb7c7a"/><text x="430.0" y="261.0" font-size="13" font-weight="600" fill="#ffffff" text-anchor="middle">-1.65</text><text x="430.0" y="275.0" font-size="10" fill="#ffffff" text-anchor="middle">[-1.69, -1.60]</text></g><rect x="487" y="239" width="110" height="44" rx="4" fill="#fcfcfb" stroke="#e1e0d9"/><text x="542.0" y="265.0" font-size="12" fill="#898781" text-anchor="middle">—</text><g><title>QR-DQN vs OpenAI-ES: -0.246 (95% CI -0.278 to -0.214)</title><rect x="599" y="239" width="110" height="44" rx="4" fill="#eadedb"/><text x="654.0" y="261.0" font-size="13" font-weight="600" fill="#0b0b0b" text-anchor="middle">-0.25</text><text x="654.0" y="275.0" font-size="10" fill="#0b0b0b" text-anchor="middle">[-0.28, -0.21]</text></g><text x="140" y="311.0" font-size="12" fill="#52514e" text-anchor="end">OpenAI-ES</text><g><title>OpenAI-ES vs PPO: -0.141 (95% CI -0.200 to -0.084)</title><rect x="151" y="285" width="110" height="44" rx="4" fill="#ede5e2"/><text x="206.0" y="307.0" font-size="13" font-weight="600" fill="#0b0b0b" text-anchor="middle">-0.14</text><text x="206.0" y="321.0" font-size="10" fill="#0b0b0b" text-anchor="middle">[-0.20, -0.08]</text></g><g><title>OpenAI-ES vs A2C: -1.714 (95% CI -1.781 to -1.646)</title><rect x="263" y="285" width="110" height="44" rx="4" fill="#c97776"/><text x="318.0" y="307.0" font-size="13" font-weight="600" fill="#ffffff" text-anchor="middle">-1.71</text><text x="318.0" y="321.0" font-size="10" fill="#ffffff" text-anchor="middle">[-1.78, -1.65]</text></g><g><title>OpenAI-ES vs D3QN: -2.754 (95% CI -2.849 to -2.659)</title><rect x="375" y="285" width="110" height="44" rx="4" fill="#b22e2e"/><text x="430.0" y="307.0" font-size="13" font-weight="600" fill="#ffffff" text-anchor="middle">-2.75</text><text x="430.0" y="321.0" font-size="10" fill="#ffffff" text-anchor="middle">[-2.85, -2.66]</text></g><g><title>OpenAI-ES vs QR-DQN: -2.140 (95% CI -2.231 to -2.043)</title><rect x="487" y="285" width="110" height="44" rx="4" fill="#c05958"/><text x="542.0" y="307.0" font-size="13" font-weight="600" fill="#ffffff" text-anchor="middle">-2.14</text><text x="542.0" y="321.0" font-size="10" fill="#ffffff" text-anchor="middle">[-2.23, -2.04]</text></g><rect x="599" y="285" width="110" height="44" rx="4" fill="#fcfcfb" stroke="#e1e0d9"/><text x="654.0" y="311.0" font-size="12" fill="#898781" text-anchor="middle">—</text><rect x="150" y="356" width="7" height="10" fill="#b22e2e"/><rect x="157" y="356" width="7" height="10" fill="#b53838"/><rect x="164" y="356" width="7" height="10" fill="#b84141"/><rect x="171" y="356" width="7" height="10" fill="#bb4b4a"/><rect x="178" y="356" width="7" height="10" fill="#be5554"/><rect x="185" y="356" width="7" height="10" fill="#c25e5e"/><rect x="192" y="356" width="7" height="10" fill="#c56867"/><rect x="199" y="356" width="7" height="10" fill="#c87270"/><rect x="206" y="356" width="7" height="10" fill="#cb7b7a"/><rect x="213" y="356" width="7" height="10" fill="#ce8584"/><rect x="220" y="356" width="7" height="10" fill="#d18e8d"/><rect x="227" y="356" width="7" height="10" fill="#d49896"/><rect x="234" y="356" width="7" height="10" fill="#d7a2a0"/><rect x="241" y="356" width="7" height="10" fill="#daabaa"/><rect x="248" y="356" width="7" height="10" fill="#ddb5b3"/><rect x="255" y="356" width="7" height="10" fill="#e0bfbc"/><rect x="262" y="356" width="7" height="10" fill="#e4c8c6"/><rect x="269" y="356" width="7" height="10" fill="#e7d2d0"/><rect x="276" y="356" width="7" height="10" fill="#eadcd9"/><rect x="283" y="356" width="7" height="10" fill="#ede5e2"/><rect x="290" y="356" width="7" height="10" fill="#f0efec"/><rect x="297" y="356" width="7" height="10" fill="#e5e8e9"/><rect x="304" y="356" width="7" height="10" fill="#dbe0e6"/><rect x="311" y="356" width="7" height="10" fill="#d0d9e2"/><rect x="318" y="356" width="7" height="10" fill="#c6d2df"/><rect x="325" y="356" width="7" height="10" fill="#bbcadc"/><rect x="332" y="356" width="7" height="10" fill="#b0c3d8"/><rect x="339" y="356" width="7" height="10" fill="#a6bcd5"/><rect x="346" y="356" width="7" height="10" fill="#9bb4d2"/><rect x="353" y="356" width="7" height="10" fill="#91adcf"/><rect x="360" y="356" width="7" height="10" fill="#86a6cc"/><rect x="367" y="356" width="7" height="10" fill="#7b9ec8"/><rect x="374" y="356" width="7" height="10" fill="#7197c5"/><rect x="381" y="356" width="7" height="10" fill="#668fc2"/><rect x="388" y="356" width="7" height="10" fill="#5c88be"/><rect x="395" y="356" width="7" height="10" fill="#5181bb"/><rect x="402" y="356" width="7" height="10" fill="#4679b8"/><rect x="409" y="356" width="7" height="10" fill="#3c72b5"/><rect x="416" y="356" width="7" height="10" fill="#316bb2"/><rect x="423" y="356" width="7" height="10" fill="#2763ae"/><rect x="430" y="356" width="7" height="10" fill="#1c5cab"/><text x="150" y="380" font-size="11" fill="#898781">-2.8</text><text x="290" y="380" font-size="11" fill="#898781" text-anchor="middle">0</text><text x="437" y="380" font-size="11" fill="#898781" text-anchor="end">+2.8 XI</text></svg>