<svg xmlns="http://www.w3.org/2000/svg" viewBox="0 0 840 468" width="840" height="468" style="font-family:system-ui,-apple-system,'Segoe UI',sans-serif;background:#fcfcfb"><text x="16" y="24" font-size="15" font-weight="600" fill="#0b0b0b">14 · Behaviour change S4 vs Stage A, by algorithm</text><text x="16" y="44" font-size="12" fill="#52514e">relative change (forced bids and purse left: absolute change); diverging colour = direction only</text><text x="289.0" y="68" font-size="12" fill="#52514e" text-anchor="middle">PPO</text><text x="407.0" y="68" font-size="12" fill="#52514e" text-anchor="middle">A2C</text><text x="525.0" y="68" font-size="12" fill="#52514e" text-anchor="middle">D3QN</text><text x="643.0" y="68" font-size="12" fill="#52514e" text-anchor="middle">QR-DQN</text><text x="761.0" y="68" font-size="12" fill="#52514e" text-anchor="middle">OpenAI-ES</text><text x="220" y="97.0" font-size="11.5" fill="#52514e" text-anchor="end">bid rate</text><g><title>bid rate · PPO: +2%</title><rect x="231" y="79" width="116" height="28" rx="4" fill="#ebebea"/><text x="289.0" y="97.0" font-size="11.5" fill="#0b0b0b" text-anchor="middle">+2%</text></g><g><title>bid rate · A2C: +9%</title><rect x="349" y="79" width="116" height="28" rx="4" fill="#dce1e6"/><text x="407.0" y="97.0" font-size="11.5" fill="#0b0b0b" text-anchor="middle">+9%</text></g><g><title>bid rate · D3QN: +1%</title><rect x="467" y="79" width="116" height="28" rx="4" fill="#ededeb"/><text x="525.0" y="97.0" font-size="11.5" fill="#0b0b0b" text-anchor="middle">+1%</text></g><g><title>bid rate · QR-DQN: +21%</title><rect x="585" y="79" width="116" height="28" rx="4" fill="#c3d0de"/><text x="643.0" y="97.0" font-size="11.5" fill="#0b0b0b" text-anchor="middle">+21%</text></g><g><title>bid rate · OpenAI-ES: +16%</title><rect x="703" y="79" width="116" height="28" rx="4" fill="#ced7e2"/><text x="761.0" y="97.0" font-size="11.5" fill="#0b0b0b" text-anchor="middle">+16%</text></g><text x="220" y="127.0" font-size="11.5" fill="#52514e" text-anchor="end">price/fair</text><g><title>price/fair · PPO: +9%</title><rect x="231" y="109" width="116" height="28" rx="4" fill="#dde2e6"/><text x="289.0" y="127.0" font-size="11.5" fill="#0b0b0b" text-anchor="middle">+9%</text></g><g><title>price/fair · A2C: +13%</title><rect x="349" y="109" width="116" height="28" rx="4" fill="#d4dce3"/><text x="407.0" y="127.0" font-size="11.5" fill="#0b0b0b" text-anchor="middle">+13%</text></g><g><title>price/fair · D3QN: +14%</title><rect x="467" y="109" width="116" height="28" rx="4" fill="#d2dae3"/><text x="525.0" y="127.0" font-size="11.5" fill="#0b0b0b" text-anchor="middle">+14%</text></g><g><title>price/fair · QR-DQN: +16%</title><rect x="585" y="109" width="116" height="28" rx="4" fill="#ced7e2"/><text x="643.0" y="127.0" font-size="11.5" fill="#0b0b0b" text-anchor="middle">+16%</text></g><g><title>price/fair · OpenAI-ES: +8%</title><rect x="703" y="109" width="116" height="28" rx="4" fill="#e0e4e7"/><text x="761.0" y="127.0" font-size="11.5" fill="#0b0b0b" text-anchor="middle">+8%</text></g><text x="220" y="157.0" font-size="11.5" fill="#52514e" text-anchor="end">cap/fair</text><g><title>cap/fair · PPO: +8%</title><rect x="231" y="139" width="116" height="28" rx="4" fill="#dee3e7"/><text x="289.0" y="157.0" font-size="11.5" fill="#0b0b0b" text-anchor="middle">+8%</text></g><g><title>cap/fair · A2C: +15%</title><rect x="349" y="139" width="116" height="28" rx="4" fill="#d1d9e2"/><text x="407.0" y="157.0" font-size="11.5" fill="#0b0b0b" text-anchor="middle">+15%</text></g><g><title>cap/fair · D3QN: -11%</title><rect x="467" y="139" width="116" height="28" rx="4" fill="#e9dbd8"/><text x="525.0" y="157.0" font-size="11.5" fill="#0b0b0b" text-anchor="middle">-11%</text></g><g><title>cap/fair · QR-DQN: -6%</title><rect x="585" y="139" width="116" height="28" rx="4" fill="#ece3e0"/><text x="643.0" y="157.0" font-size="11.5" fill="#0b0b0b" text-anchor="middle">-6%</text></g><g><title>cap/fair · OpenAI-ES: +17%</title><rect x="703" y="139" width="116" height="28" rx="4" fill="#cbd5e1"/><text x="761.0" y="157.0" font-size="11.5" fill="#0b0b0b" text-anchor="middle">+17%</text></g><text x="220" y="187.0" font-size="11.5" fill="#52514e" text-anchor="end">stars</text><g><title>stars · PPO: -18%</title><rect x="231" y="169" width="116" height="28" rx="4" fill="#e5ccca"/><text x="289.0" y="187.0" font-size="11.5" fill="#0b0b0b" text-anchor="middle">-18%</text></g><g><title>stars · A2C: -63%</title><rect x="349" y="169" width="116" height="28" rx="4" fill="#c97574"/><text x="407.0" y="187.0" font-size="11.5" fill="#ffffff" text-anchor="middle">-63%</text></g><g><title>stars · D3QN: -37%</title><rect x="467" y="169" width="116" height="28" rx="4" fill="#d9a8a6"/><text x="525.0" y="187.0" font-size="11.5" fill="#0b0b0b" text-anchor="middle">-37%</text></g><g><title>stars · QR-DQN: -41%</title><rect x="585" y="169" width="116" height="28" rx="4" fill="#d69f9e"/><text x="643.0" y="187.0" font-size="11.5" fill="#0b0b0b" text-anchor="middle">-41%</text></g><g><title>stars · OpenAI-ES: -81%</title><rect x="703" y="169" width="116" height="28" rx="4" fill="#be5352"/><text x="761.0" y="187.0" font-size="11.5" fill="#ffffff" text-anchor="middle">-81%</text></g><text x="220" y="217.0" font-size="11.5" fill="#52514e" text-anchor="end">marginal buys</text><g><title>marginal buys · PPO: +630%</title><rect x="231" y="199" width="116" height="28" rx="4" fill="#1c5cab"/><text x="289.0" y="217.0" font-size="11.5" fill="#ffffff" text-anchor="middle">+630%</text></g><g><title>marginal buys · A2C: +424%</title><rect x="349" y="199" width="116" height="28" rx="4" fill="#1c5cab"/><text x="407.0" y="217.0" font-size="11.5" fill="#ffffff" text-anchor="middle">+424%</text></g><g><title>marginal buys · D3QN: +213%</title><rect x="467" y="199" width="116" height="28" rx="4" fill="#1c5cab"/><text x="525.0" y="217.0" font-size="11.5" fill="#ffffff" text-anchor="middle">+213%</text></g><g><title>marginal buys · QR-DQN: +216%</title><rect x="585" y="199" width="116" height="28" rx="4" fill="#1c5cab"/><text x="643.0" y="217.0" font-size="11.5" fill="#ffffff" text-anchor="middle">+216%</text></g><g><title>marginal buys · OpenAI-ES: +546%</title><rect x="703" y="199" width="116" height="28" rx="4" fill="#1c5cab"/><text x="761.0" y="217.0" font-size="11.5" fill="#ffffff" text-anchor="middle">+546%</text></g><text x="220" y="247.0" font-size="11.5" fill="#52514e" text-anchor="end">squad size</text><g><title>squad size · PPO: +9%</title><rect x="231" y="229" width="116" height="28" rx="4" fill="#dce1e6"/><text x="289.0" y="247.0" font-size="11.5" fill="#0b0b0b" text-anchor="middle">+9%</text></g><g><title>squad size · A2C: +47%</title><rect x="349" y="229" width="116" height="28" rx="4" fill="#8ba9cd"/><text x="407.0" y="247.0" font-size="11.5" fill="#0b0b0b" text-anchor="middle">+47%</text></g><g><title>squad size · D3QN: -3%</title><rect x="467" y="229" width="116" height="28" rx="4" fill="#eee8e5"/><text x="525.0" y="247.0" font-size="11.5" fill="#0b0b0b" text-anchor="middle">-3%</text></g><g><title>squad size · QR-DQN: -1%</title><rect x="585" y="229" width="116" height="28" rx="4" fill="#f0eeeb"/><text x="643.0" y="247.0" font-size="11.5" fill="#0b0b0b" text-anchor="middle">-1%</text></g><g><title>squad size · OpenAI-ES: +57%</title><rect x="703" y="229" width="116" height="28" rx="4" fill="#779bc7"/><text x="761.0" y="247.0" font-size="11.5" fill="#ffffff" text-anchor="middle">+57%</text></g><text x="220" y="277.0" font-size="11.5" fill="#52514e" text-anchor="end">overseas</text><g><title>overseas · PPO: +1%</title><rect x="231" y="259" width="116" height="28" rx="4" fill="#ededeb"/><text x="289.0" y="277.0" font-size="11.5" fill="#0b0b0b" text-anchor="middle">+1%</text></g><g><title>overseas · A2C: +50%</title><rect x="349" y="259" width="116" height="28" rx="4" fill="#87a6cc"/><text x="407.0" y="277.0" font-size="11.5" fill="#0b0b0b" text-anchor="middle">+50%</text></g><g><title>overseas · D3QN: +7%</title><rect x="467" y="259" width="116" height="28" rx="4" fill="#e0e4e7"/><text x="525.0" y="277.0" font-size="11.5" fill="#0b0b0b" text-anchor="middle">+7%</text></g><g><title>overseas · QR-DQN: +11%</title><rect x="585" y="259" width="116" height="28" rx="4" fill="#d9dfe5"/><text x="643.0" y="277.0" font-size="11.5" fill="#0b0b0b" text-anchor="middle">+11%</text></g><g><title>overseas · OpenAI-ES: +39%</title><rect x="703" y="259" width="116" height="28" rx="4" fill="#9db6d3"/><text x="761.0" y="277.0" font-size="11.5" fill="#0b0b0b" text-anchor="middle">+39%</text></g><text x="220" y="307.0" font-size="11.5" fill="#52514e" text-anchor="end">purse left</text><g><title>purse left · PPO: +1%</title><rect x="231" y="289" width="116" height="28" rx="4" fill="#efeeec"/><text x="289.0" y="307.0" font-size="11.5" fill="#0b0b0b" text-anchor="middle">+1%</text></g><g><title>purse left · A2C: +2%</title><rect x="349" y="289" width="116" height="28" rx="4" fill="#ebeceb"/><text x="407.0" y="307.0" font-size="11.5" fill="#0b0b0b" text-anchor="middle">+2%</text></g><g><title>purse left · D3QN: -0%</title><rect x="467" y="289" width="116" height="28" rx="4" fill="#f0efec"/><text x="525.0" y="307.0" font-size="11.5" fill="#0b0b0b" text-anchor="middle">-0%</text></g><g><title>purse left · QR-DQN: +0%</title><rect x="585" y="289" width="116" height="28" rx="4" fill="#f0efec"/><text x="643.0" y="307.0" font-size="11.5" fill="#0b0b0b" text-anchor="middle">+0%</text></g><g><title>purse left · OpenAI-ES: +18%</title><rect x="703" y="289" width="116" height="28" rx="4" fill="#cad5e0"/><text x="761.0" y="307.0" font-size="11.5" fill="#0b0b0b" text-anchor="middle">+18%</text></g><text x="220" y="337.0" font-size="11.5" fill="#52514e" text-anchor="end">keeper completion</text><g><title>keeper completion · PPO: +561%</title><rect x="231" y="319" width="116" height="28" rx="4" fill="#1c5cab"/><text x="289.0" y="337.0" font-size="11.5" fill="#ffffff" text-anchor="middle">+561%</text></g><g><title>keeper completion · A2C: +240%</title><rect x="349" y="319" width="116" height="28" rx="4" fill="#1c5cab"/><text x="407.0" y="337.0" font-size="11.5" fill="#ffffff" text-anchor="middle">+240%</text></g><g><title>keeper completion · D3QN: +449%</title><rect x="467" y="319" width="116" height="28" rx="4" fill="#1c5cab"/><text x="525.0" y="337.0" font-size="11.5" fill="#ffffff" text-anchor="middle">+449%</text></g><g><title>keeper completion · QR-DQN: +172%</title><rect x="585" y="319" width="116" height="28" rx="4" fill="#1c5cab"/><text x="643.0" y="337.0" font-size="11.5" fill="#ffffff" text-anchor="middle">+172%</text></g><g><title>keeper completion · OpenAI-ES: +263%</title><rect x="703" y="319" width="116" height="28" rx="4" fill="#1c5cab"/><text x="761.0" y="337.0" font-size="11.5" fill="#ffffff" text-anchor="middle">+263%</text></g><text x="220" y="367.0" font-size="11.5" fill="#52514e" text-anchor="end">Indian completion</text><g><title>Indian completion · PPO: +142%</title><rect x="231" y="349" width="116" height="28" rx="4" fill="#1c5cab"/><text x="289.0" y="367.0" font-size="11.5" fill="#ffffff" text-anchor="middle">+142%</text></g><g><title>Indian completion · A2C: +77%</title><rect x="349" y="349" width="116" height="28" rx="4" fill="#4e7eba"/><text x="407.0" y="367.0" font-size="11.5" fill="#ffffff" text-anchor="middle">+77%</text></g><g><title>Indian completion · D3QN: +252%</title><rect x="467" y="349" width="116" height="28" rx="4" fill="#1c5cab"/><text x="525.0" y="367.0" font-size="11.5" fill="#ffffff" text-anchor="middle">+252%</text></g><g><title>Indian completion · QR-DQN: +182%</title><rect x="585" y="349" width="116" height="28" rx="4" fill="#1c5cab"/><text x="643.0" y="367.0" font-size="11.5" fill="#ffffff" text-anchor="middle">+182%</text></g><g><title>Indian completion · OpenAI-ES: +179%</title><rect x="703" y="349" width="116" height="28" rx="4" fill="#1c5cab"/><text x="761.0" y="367.0" font-size="11.5" fill="#ffffff" text-anchor="middle">+179%</text></g><text x="220" y="397.0" font-size="11.5" fill="#52514e" text-anchor="end">forced bids</text><rect x="231" y="379" width="116" height="28" rx="4" fill="#fcfcfb" stroke="#e1e0d9"/><g><title>forced bids · A2C: +31%</title><rect x="349" y="379" width="116" height="28" rx="4" fill="#aec1d8"/><text x="407.0" y="397.0" font-size="11.5" fill="#0b0b0b" text-anchor="middle">+31%</text></g><g><title>forced bids · D3QN: +41%</title><rect x="467" y="379" width="116" height="28" rx="4" fill="#98b2d1"/><text x="525.0" y="397.0" font-size="11.5" fill="#0b0b0b" text-anchor="middle">+41%</text></g><g><title>forced bids · QR-DQN: +25%</title><rect x="585" y="379" width="116" height="28" rx="4" fill="#bbcadc"/><text x="643.0" y="397.0" font-size="11.5" fill="#0b0b0b" text-anchor="middle">+25%</text></g><g><title>forced bids · OpenAI-ES: -16%</title><rect x="703" y="379" width="116" height="28" rx="4" fill="#e6d1ce"/><text x="761.0" y="397.0" font-size="11.5" fill="#0b0b0b" text-anchor="middle">-16%</text></g><text x="220" y="427.0" font-size="11.5" fill="#52514e" text-anchor="end">Best XI</text><g><title>Best XI · PPO: -3%</title><rect x="231" y="409" width="116" height="28" rx="4" fill="#eeeae7"/><text x="289.0" y="427.0" font-size="11.5" fill="#0b0b0b" text-anchor="middle">-3%</text></g><g><title>Best XI · A2C: -6%</title><rect x="349" y="409" width="116" height="28" rx="4" fill="#ece4e1"/><text x="407.0" y="427.0" font-size="11.5" fill="#0b0b0b" text-anchor="middle">-6%</text></g><g><title>Best XI · D3QN: -5%</title><rect x="467" y="409" width="116" height="28" rx="4" fill="#ede5e2"/><text x="525.0" y="427.0" font-size="11.5" fill="#0b0b0b" text-anchor="middle">-5%</text></g><g><title>Best XI · QR-DQN: -5%</title><rect x="585" y="409" width="116" height="28" rx="4" fill="#ede6e3"/><text x="643.0" y="427.0" font-size="11.5" fill="#0b0b0b" text-anchor="middle">-5%</text></g><g><title>Best XI · OpenAI-ES: -7%</title><rect x="703" y="409" width="116" height="28" rx="4" fill="#ebe1de"/><text x="761.0" y="427.0" font-size="11.5" fill="#0b0b0b" text-anchor="middle">-7%</text></g></svg>