<svg xmlns="http://www.w3.org/2000/svg" viewBox="0 0 760 286" width="760" height="286" style="font-family:system-ui,-apple-system,'Segoe UI',sans-serif;background:#fcfcfb"><text x="16" y="24" font-size="15" font-weight="600" fill="#0b0b0b">8 · Saturated features: what the clip removes vs what matters</text><text x="16" y="44" font-size="12" fill="#52514e">yellow = share of decisions at the clip value 5; blue = share of decisions where the removed range would have mattered</text><line x1="290.0" x2="290.0" y1="60" y2="246" stroke="#e1e0d9"/><text x="290.0" y="262" font-size="10" fill="#898781" text-anchor="middle">0.0%</text><line x1="352.5" x2="352.5" y1="60" y2="246" stroke="#e1e0d9"/><text x="352.5" y="262" font-size="10" fill="#898781" text-anchor="middle">25.0%</text><line x1="415.0" x2="415.0" y1="60" y2="246" stroke="#e1e0d9"/><text x="415.0" y="262" font-size="10" fill="#898781" text-anchor="middle">50.0%</text><line x1="477.5" x2="477.5" y1="60" y2="246" stroke="#e1e0d9"/><text x="477.5" y="262" font-size="10" fill="#898781" text-anchor="middle">75.0%</text><line x1="540.0" x2="540.0" y1="60" y2="246" stroke="#e1e0d9"/><text x="540.0" y="262" font-size="10" fill="#898781" text-anchor="middle">100.0%</text><text x="280" y="81.0" font-size="11.5" fill="#52514e" text-anchor="end">riv_capacity_1 at clip</text><g><title>riv_capacity_1 at clip: 99.3%</title><rect x="290" y="69" width="248.25" height="16" rx="4" fill="#eda100"/></g><text x="544.25" y="81.0" font-size="11" fill="#0b0b0b">99.3%</text><text x="280" y="107.0" font-size="11.5" fill="#52514e" text-anchor="end">riv_capacity_3 at clip</text><g><title>riv_capacity_3 at clip: 97.4%</title><rect x="290" y="95" width="243.5" height="16" rx="4" fill="#eda100"/></g><text x="539.5" y="107.0" font-size="11" fill="#0b0b0b">97.4%</text><text x="280" y="133.0" font-size="11.5" fill="#52514e" text-anchor="end">price needed &gt; 5 × fair</text><g><title>price needed &gt; 5 × fair: 0.0% — the range the clip removes</title><rect x="290" y="121" width="2.0" height="16" rx="4" fill="#2a78d6"/></g><text x="298.0" y="133.0" font-size="11" fill="#0b0b0b">0.0%  the range the clip removes</text><text x="280" y="159.0" font-size="11.5" fill="#52514e" text-anchor="end">mkt_scarcity_bowling at clip (own need)</text><g><title>mkt_scarcity_bowling at clip (own need): 100.0%</title><rect x="290" y="147" width="250.0" height="16" rx="4" fill="#eda100"/></g><text x="546.0" y="159.0" font-size="11" fill="#0b0b0b">100.0%</text><text x="280" y="185.0" font-size="11.5" fill="#52514e" text-anchor="end">bowling scarcity &lt; 2 with own need</text><g><title>bowling scarcity &lt; 2 with own need: 0.0% — the range that matters</title><rect x="290" y="173" width="2.0" height="16" rx="4" fill="#2a78d6"/></g><text x="298.0" y="185.0" font-size="11" fill="#0b0b0b">0.0%  the range that matters</text><text x="280" y="211.0" font-size="11.5" fill="#52514e" text-anchor="end">mkt_scarcity_indians at clip (own need)</text><g><title>mkt_scarcity_indians at clip (own need): 100.0%</title><rect x="290" y="199" width="250.0" height="16" rx="4" fill="#eda100"/></g><text x="546.0" y="211.0" font-size="11" fill="#0b0b0b">100.0%</text><text x="280" y="237.0" font-size="11.5" fill="#52514e" text-anchor="end">Indians scarcity &lt; 2 with own need</text><g><title>Indians scarcity &lt; 2 with own need: 0.0% — the range that matters</title><rect x="290" y="225" width="2.0" height="16" rx="4" fill="#2a78d6"/></g><text x="298.0" y="237.0" font-size="11" fill="#0b0b0b">0.0%  the range that matters</text></svg>