<svg xmlns="http://www.w3.org/2000/svg" viewBox="0 0 760 330" width="760" height="330" style="font-family:system-ui,-apple-system,'Segoe UI',sans-serif;background:#fcfcfb"><text x="16" y="24" font-size="15" font-weight="600" fill="#0b0b0b">3 · Materially different competition, (almost) the same observation</text><text x="16" y="44" font-size="12" fill="#52514e">pairs where the price needed to win differs by ≥ 0.5 × fair value — share with L∞ ≤ 0.02 over all 80 features</text><line x1="58" x2="570" y1="266.0" y2="266.0" stroke="#e1e0d9"/><text x="50" y="270.0" font-size="10" fill="#898781" text-anchor="end">0%</text><line x1="58" x2="570" y1="217.0" y2="217.0" stroke="#e1e0d9"/><text x="50" y="221.0" font-size="10" fill="#898781" text-anchor="end">5%</text><line x1="58" x2="570" y1="168.0" y2="168.0" stroke="#e1e0d9"/><text x="50" y="172.0" font-size="10" fill="#898781" text-anchor="end">10%</text><line x1="58" x2="570" y1="118.99999999999997" y2="118.99999999999997" stroke="#e1e0d9"/><text x="50" y="122.99999999999997" font-size="10" fill="#898781" text-anchor="end">15%</text><line x1="58" x2="570" y1="70.0" y2="70.0" stroke="#e1e0d9"/><text x="50" y="74.0" font-size="10" fill="#898781" text-anchor="end">20%</text><text x="58.0" y="282" font-size="10" fill="#898781" text-anchor="middle">0–2%</text><text x="122.0" y="282" font-size="10" fill="#898781" text-anchor="middle">2–5%</text><text x="186.0" y="282" font-size="10" fill="#898781" text-anchor="middle">5–10%</text><text x="250.0" y="282" font-size="10" fill="#898781" text-anchor="middle">10–20%</text><text x="314.0" y="282" font-size="10" fill="#898781" text-anchor="middle">20–30%</text><text x="378.0" y="282" font-size="10" fill="#898781" text-anchor="middle">30–50%</text><text x="442.0" y="282" font-size="10" fill="#898781" text-anchor="middle">50–75%</text><text x="506.0" y="282" font-size="10" fill="#898781" text-anchor="middle">75–100%</text><text x="570.0" y="282" font-size="10" fill="#898781" text-anchor="middle">re-auction</text><polyline points="58.0,157.2 122.0,226.8 186.0,245.4 250.0,266.0 314.0,266.0 378.0,266.0 442.0,266.0 506.0,266.0 570.0,266.0" fill="none" stroke="#2a78d6" stroke-width="2"/><g><title>C1 @ 0–2%: 11%</title><circle cx="58.0" cy="157.22000000000003" r="7" fill="transparent"/><circle cx="58.0" cy="157.22000000000003" r="3" fill="#2a78d6"/></g><g><title>C1 @ 2–5%: 4%</title><circle cx="122.0" cy="226.8" r="7" fill="transparent"/><circle cx="122.0" cy="226.8" r="3" fill="#2a78d6"/></g><g><title>C1 @ 5–10%: 2%</title><circle cx="186.0" cy="245.42000000000002" r="7" fill="transparent"/><circle cx="186.0" cy="245.42000000000002" r="3" fill="#2a78d6"/></g><g><title>C1 @ 10–20%: 0%</title><circle cx="250.0" cy="266.0" r="7" fill="transparent"/><circle cx="250.0" cy="266.0" r="3" fill="#2a78d6"/></g><g><title>C1 @ 20–30%: 0%</title><circle cx="314.0" cy="266.0" r="7" fill="transparent"/><circle cx="314.0" cy="266.0" r="3" fill="#2a78d6"/></g><g><title>C1 @ 30–50%: 0%</title><circle cx="378.0" cy="266.0" r="7" fill="transparent"/><circle cx="378.0" cy="266.0" r="3" fill="#2a78d6"/></g><g><title>C1 @ 50–75%: 0%</title><circle cx="442.0" cy="266.0" r="7" fill="transparent"/><circle cx="442.0" cy="266.0" r="3" fill="#2a78d6"/></g><g><title>C1 @ 75–100%: 0%</title><circle cx="506.0" cy="266.0" r="7" fill="transparent"/><circle cx="506.0" cy="266.0" r="3" fill="#2a78d6"/></g><g><title>C1 @ re-auction: 0%</title><circle cx="570.0" cy="266.0" r="7" fill="transparent"/><circle cx="570.0" cy="266.0" r="3" fill="#2a78d6"/></g><line x1="574.0" x2="601" y1="266.0" y2="260" stroke="#2a78d6" stroke-width="1" stroke-dasharray="2 2"/><text x="604" y="264" font-size="10.5" fill="#52514e">C1</text><polyline points="58.0,246.4 122.0,264.0 186.0,266.0 250.0,266.0 314.0,266.0 378.0,266.0 442.0,266.0 506.0,266.0 570.0,266.0" fill="none" stroke="#eb6834" stroke-width="2"/><g><title>C4 @ 0–2%: 2%</title><circle cx="58.0" cy="246.4" r="7" fill="transparent"/><circle cx="58.0" cy="246.4" r="3" fill="#eb6834"/></g><g><title>C4 @ 2–5%: 0%</title><circle cx="122.0" cy="264.04" r="7" fill="transparent"/><circle cx="122.0" cy="264.04" r="3" fill="#eb6834"/></g><g><title>C4 @ 5–10%: 0%</title><circle cx="186.0" cy="266.0" r="7" fill="transparent"/><circle cx="186.0" cy="266.0" r="3" fill="#eb6834"/></g><g><title>C4 @ 10–20%: 0%</title><circle cx="250.0" cy="266.0" r="7" fill="transparent"/><circle cx="250.0" cy="266.0" r="3" fill="#eb6834"/></g><g><title>C4 @ 20–30%: 0%</title><circle cx="314.0" cy="266.0" r="7" fill="transparent"/><circle cx="314.0" cy="266.0" r="3" fill="#eb6834"/></g><g><title>C4 @ 30–50%: 0%</title><circle cx="378.0" cy="266.0" r="7" fill="transparent"/><circle cx="378.0" cy="266.0" r="3" fill="#eb6834"/></g><g><title>C4 @ 50–75%: 0%</title><circle cx="442.0" cy="266.0" r="7" fill="transparent"/><circle cx="442.0" cy="266.0" r="3" fill="#eb6834"/></g><g><title>C4 @ 75–100%: 0%</title><circle cx="506.0" cy="266.0" r="7" fill="transparent"/><circle cx="506.0" cy="266.0" r="3" fill="#eb6834"/></g><g><title>C4 @ re-auction: 0%</title><circle cx="570.0" cy="266.0" r="7" fill="transparent"/><circle cx="570.0" cy="266.0" r="3" fill="#eb6834"/></g><line x1="574.0" x2="601" y1="266.0" y2="246" stroke="#eb6834" stroke-width="1" stroke-dasharray="2 2"/><text x="604" y="250" font-size="10.5" fill="#52514e">C4</text><polyline points="58.0,216.0 122.0,263.1 186.0,266.0 250.0,266.0 314.0,266.0 378.0,266.0 442.0,266.0 506.0,266.0" fill="none" stroke="#1baf7a" stroke-width="2"/><g><title>S4 @ 0–2%: 5%</title><circle cx="58.0" cy="216.02" r="7" fill="transparent"/><circle cx="58.0" cy="216.02" r="3" fill="#1baf7a"/></g><g><title>S4 @ 2–5%: 0%</title><circle cx="122.0" cy="263.06" r="7" fill="transparent"/><circle cx="122.0" cy="263.06" r="3" fill="#1baf7a"/></g><g><title>S4 @ 5–10%: 0%</title><circle cx="186.0" cy="266.0" r="7" fill="transparent"/><circle cx="186.0" cy="266.0" r="3" fill="#1baf7a"/></g><g><title>S4 @ 10–20%: 0%</title><circle cx="250.0" cy="266.0" r="7" fill="transparent"/><circle cx="250.0" cy="266.0" r="3" fill="#1baf7a"/></g><g><title>S4 @ 20–30%: 0%</title><circle cx="314.0" cy="266.0" r="7" fill="transparent"/><circle cx="314.0" cy="266.0" r="3" fill="#1baf7a"/></g><g><title>S4 @ 30–50%: 0%</title><circle cx="378.0" cy="266.0" r="7" fill="transparent"/><circle cx="378.0" cy="266.0" r="3" fill="#1baf7a"/></g><g><title>S4 @ 50–75%: 0%</title><circle cx="442.0" cy="266.0" r="7" fill="transparent"/><circle cx="442.0" cy="266.0" r="3" fill="#1baf7a"/></g><g><title>S4 @ 75–100%: 0%</title><circle cx="506.0" cy="266.0" r="7" fill="transparent"/><circle cx="506.0" cy="266.0" r="3" fill="#1baf7a"/></g><line x1="510.0" x2="601" y1="266.0" y2="232" stroke="#1baf7a" stroke-width="1" stroke-dasharray="2 2"/><text x="604" y="236" font-size="10.5" fill="#52514e">S4</text><text x="314.0" y="300" font-size="11" fill="#898781" text-anchor="middle">main-round progress bin</text><text x="14" y="168.0" font-size="11" fill="#898781" transform="rotate(-90 14 168.0)" text-anchor="middle">share of material pairs aliased</text><circle cx="58" cy="316" r="4.5" fill="#2a78d6"/><text x="67" y="320" font-size="11" fill="#52514e">C1</text><circle cx="94.8" cy="316" r="4.5" fill="#eb6834"/><text x="103.8" y="320" font-size="11" fill="#52514e">C4</text><circle cx="131.6" cy="316" r="4.5" fill="#1baf7a"/><text x="140.6" y="320" font-size="11" fill="#52514e">S4</text></svg>