<svg xmlns="http://www.w3.org/2000/svg" viewBox="0 0 760 330" width="760" height="330" style="font-family:system-ui,-apple-system,'Segoe UI',sans-serif;background:#fcfcfb"><text x="16" y="24" font-size="15" font-weight="600" fill="#0b0b0b">5c · S4: transfer improvement across checkpoints (Stage B − Stage A, same entries 0–99)</text><text x="16" y="44" font-size="12" fill="#52514e">positive = smaller transfer loss than the frozen Stage-A policy; all three checkpoints on validation entries 0–99</text><line x1="58" x2="570" y1="266.0" y2="266.0" stroke="#e1e0d9"/><text x="50" y="270.0" font-size="10" fill="#898781" text-anchor="end">+0.03</text><line x1="58" x2="570" y1="217.0" y2="217.0" stroke="#e1e0d9"/><text x="50" y="221.0" font-size="10" fill="#898781" text-anchor="end">+0.68</text><line x1="58" x2="570" y1="168.0" y2="168.0" stroke="#e1e0d9"/><text x="50" y="172.0" font-size="10" fill="#898781" text-anchor="end">+1.33</text><line x1="58" x2="570" y1="118.99999999999997" y2="118.99999999999997" stroke="#e1e0d9"/><text x="50" y="122.99999999999997" font-size="10" fill="#898781" text-anchor="end">+1.98</text><line x1="58" x2="570" y1="70.0" y2="70.0" stroke="#e1e0d9"/><text x="50" y="74.0" font-size="10" fill="#898781" text-anchor="end">+2.63</text><text x="58.0" y="282" font-size="10" fill="#898781" text-anchor="middle">100k</text><text x="314.0" y="282" font-size="10" fill="#898781" text-anchor="middle">250k</text><text x="570.0" y="282" font-size="10" fill="#898781" text-anchor="middle">500k</text><polyline points="58.0,258.5 314.0,252.2 570.0,235.3" fill="none" stroke="#2a78d6" stroke-width="2"/><g><title>PPO @ 100k: +0.13</title><circle cx="58.0" cy="258.4840862029297" r="7" fill="transparent"/><circle cx="58.0" cy="258.4840862029297" r="3" fill="#2a78d6"/></g><g><title>PPO @ 250k: +0.21</title><circle cx="314.0" cy="252.15568678579646" r="7" fill="transparent"/><circle cx="314.0" cy="252.15568678579646" r="3" fill="#2a78d6"/></g><g><title>PPO @ 500k: +0.43</title><circle cx="570.0" cy="235.32755579415598" r="7" fill="transparent"/><circle cx="570.0" cy="235.32755579415598" r="3" fill="#2a78d6"/></g><line x1="574.0" x2="601" y1="235.32755579415598" y2="235.32755579415598" stroke="#2a78d6" stroke-width="1" stroke-dasharray="2 2"/><text x="604" y="239.32755579415598" font-size="10.5" fill="#52514e">PPO</text><polyline points="58.0,258.2 314.0,218.2 570.0,187.5" fill="none" stroke="#eb6834" stroke-width="2"/><g><title>A2C @ 100k: +0.13</title><circle cx="58.0" cy="258.21351330623514" r="7" fill="transparent"/><circle cx="58.0" cy="258.21351330623514" r="3" fill="#eb6834"/></g><g><title>A2C @ 250k: +0.66</title><circle cx="314.0" cy="218.1762405092415" r="7" fill="transparent"/><circle cx="314.0" cy="218.1762405092415" r="3" fill="#eb6834"/></g><g><title>A2C @ 500k: +1.07</title><circle cx="570.0" cy="187.54137587238287" r="7" fill="transparent"/><circle cx="570.0" cy="187.54137587238287" r="3" fill="#eb6834"/></g><line x1="574.0" x2="601" y1="187.54137587238287" y2="187.54137587238287" stroke="#eb6834" stroke-width="1" stroke-dasharray="2 2"/><text x="604" y="191.54137587238287" font-size="10.5" fill="#52514e">A2C</text><polyline points="58.0,170.2 314.0,77.5 570.0,103.4" fill="none" stroke="#1baf7a" stroke-width="2"/><g><title>D3QN @ 100k: +1.30</title><circle cx="58.0" cy="170.1871309149475" r="7" fill="transparent"/><circle cx="58.0" cy="170.1871309149475" r="3" fill="#1baf7a"/></g><g><title>D3QN @ 250k: +2.53</title><circle cx="314.0" cy="77.51591379707034" r="7" fill="transparent"/><circle cx="314.0" cy="77.51591379707034" r="3" fill="#1baf7a"/></g><g><title>D3QN @ 500k: +2.19</title><circle cx="570.0" cy="103.38568908658638" r="7" fill="transparent"/><circle cx="570.0" cy="103.38568908658638" r="3" fill="#1baf7a"/></g><line x1="574.0" x2="601" y1="103.38568908658638" y2="103.38568908658638" stroke="#1baf7a" stroke-width="1" stroke-dasharray="2 2"/><text x="604" y="107.38568908658638" font-size="10.5" fill="#52514e">D3QN</text><polyline points="58.0,110.0 314.0,194.0 570.0,175.7" fill="none" stroke="#eda100" stroke-width="2"/><g><title>QR-DQN @ 100k: +2.10</title><circle cx="58.0" cy="109.9921773142112" r="7" fill="transparent"/><circle cx="58.0" cy="109.9921773142112" r="3" fill="#eda100"/></g><g><title>QR-DQN @ 250k: +0.98</title><circle cx="314.0" cy="194.01257765166042" r="7" fill="transparent"/><circle cx="314.0" cy="194.01257765166042" r="3" fill="#eda100"/></g><g><title>QR-DQN @ 500k: +1.23</title><circle cx="570.0" cy="175.74139121098244" r="7" fill="transparent"/><circle cx="570.0" cy="175.74139121098244" r="3" fill="#eda100"/></g><line x1="574.0" x2="601" y1="175.74139121098244" y2="161.74139121098244" stroke="#eda100" stroke-width="1" stroke-dasharray="2 2"/><text x="604" y="165.74139121098244" font-size="10.5" fill="#52514e">QR-DQN</text><polyline points="58.0,195.1 314.0,191.1 570.0,180.7" fill="none" stroke="#e87ba4" stroke-width="2"/><g><title>OpenAI-ES @ 100k: +0.97</title><circle cx="58.0" cy="195.05728966945318" r="7" fill="transparent"/><circle cx="58.0" cy="195.05728966945318" r="3" fill="#e87ba4"/></g><g><title>OpenAI-ES @ 250k: +1.02</title><circle cx="314.0" cy="191.07385535700593" r="7" fill="transparent"/><circle cx="314.0" cy="191.07385535700593" r="3" fill="#e87ba4"/></g><g><title>OpenAI-ES @ 500k: +1.16</title><circle cx="570.0" cy="180.6868624894547" r="7" fill="transparent"/><circle cx="570.0" cy="180.6868624894547" r="3" fill="#e87ba4"/></g><line x1="574.0" x2="601" y1="180.6868624894547" y2="138.6868624894547" stroke="#e87ba4" stroke-width="1" stroke-dasharray="2 2"/><text x="604" y="142.6868624894547" font-size="10.5" fill="#52514e">OpenAI-ES</text><text x="314.0" y="300" font-size="11" fill="#898781" text-anchor="middle">main-round progress bin</text><text x="14" y="168.0" font-size="11" fill="#898781" transform="rotate(-90 14 168.0)" text-anchor="middle">transfer improvement (XI)</text><circle cx="58" cy="316" r="4.5" fill="#2a78d6"/><text x="67" y="320" font-size="11" fill="#52514e">PPO</text><circle cx="101.2" cy="316" r="4.5" fill="#eb6834"/><text x="110.2" y="320" font-size="11" fill="#52514e">A2C</text><circle cx="144.4" cy="316" r="4.5" fill="#1baf7a"/><text x="153.4" y="320" font-size="11" fill="#52514e">D3QN</text><circle cx="194.0" cy="316" r="4.5" fill="#eda100"/><text x="203.0" y="320" font-size="11" fill="#52514e">QR-DQN</text><circle cx="256.4" cy="316" r="4.5" fill="#e87ba4"/><text x="265.4" y="320" font-size="11" fill="#52514e">OpenAI-ES</text></svg>