<svg xmlns="http://www.w3.org/2000/svg" viewBox="0 0 734 400" width="734" height="400" style="font-family:system-ui,-apple-system,'Segoe UI',sans-serif;background:#fcfcfb"><text x="16" y="24" font-size="15" font-weight="600" fill="#0b0b0b">S4 mixed room: head-to-head Δ</text><text x="16" y="44" font-size="12" fill="#52514e">learner XI − that algorithm&#x27;s seat XI in the same auction (3 seeds × 500)</text><text x="430.0" y="90" font-size="11" fill="#898781" text-anchor="middle">opponent →</text><text x="16" y="215.0" font-size="11" fill="#898781">learner ↓</text><text x="206.0" y="72" font-size="12" fill="#52514e" text-anchor="middle">PPO</text><text x="318.0" y="72" font-size="12" fill="#52514e" text-anchor="middle">A2C</text><text x="430.0" y="72" font-size="12" fill="#52514e" text-anchor="middle">D3QN</text><text x="542.0" y="72" font-size="12" fill="#52514e" text-anchor="middle">QR-DQN</text><text x="654.0" y="72" font-size="12" fill="#52514e" text-anchor="middle">OpenAI-ES</text><text x="140" y="127.0" font-size="12" fill="#52514e" text-anchor="end">PPO</text><rect x="151" y="101" width="110" height="44" rx="4" fill="#fcfcfb" stroke="#e1e0d9"/><text x="206.0" y="127.0" font-size="12" fill="#898781" text-anchor="middle">—</text><g><title>PPO vs A2C: +4.873 (95% CI +4.819 to +4.928)</title><rect x="263" y="101" width="110" height="44" rx="4" fill="#4276b7"/><text x="318.0" y="123.0" font-size="13" font-weight="600" fill="#ffffff" text-anchor="middle">+4.87</text><text x="318.0" y="137.0" font-size="10" fill="#ffffff" text-anchor="middle">[+4.82, +4.93]</text></g><g><title>PPO vs D3QN: +3.481 (95% CI +3.418 to +3.548)</title><rect x="375" y="101" width="110" height="44" rx="4" fill="#7499c6"/><text x="430.0" y="123.0" font-size="13" font-weight="600" fill="#ffffff" text-anchor="middle">+3.48</text><text x="430.0" y="137.0" font-size="10" fill="#ffffff" text-anchor="middle">[+3.42, +3.55]</text></g><g><title>PPO vs QR-DQN: +2.639 (95% CI +2.587 to +2.694)</title><rect x="487" y="101" width="110" height="44" rx="4" fill="#92aecf"/><text x="542.0" y="123.0" font-size="13" font-weight="600" fill="#0b0b0b" text-anchor="middle">+2.64</text><text x="542.0" y="137.0" font-size="10" fill="#0b0b0b" text-anchor="middle">[+2.59, +2.69]</text></g><g><title>PPO vs OpenAI-ES: +5.869 (95% CI +5.784 to +5.957)</title><rect x="599" y="101" width="110" height="44" rx="4" fill="#1f5eac"/><text x="654.0" y="123.0" font-size="13" font-weight="600" fill="#ffffff" text-anchor="middle">+5.87</text><text x="654.0" y="137.0" font-size="10" fill="#ffffff" text-anchor="middle">[+5.78, +5.96]</text></g><text x="140" y="173.0" font-size="12" fill="#52514e" text-anchor="end">A2C</text><g><title>A2C vs PPO: -4.853 (95% CI -4.911 to -4.797)</title><rect x="151" y="147" width="110" height="44" rx="4" fill="#bd5151"/><text x="206.0" y="169.0" font-size="13" font-weight="600" fill="#ffffff" text-anchor="middle">-4.85</text><text x="206.0" y="183.0" font-size="10" fill="#ffffff" text-anchor="middle">[-4.91, -4.80]</text></g><rect x="263" y="147" width="110" height="44" rx="4" fill="#fcfcfb" stroke="#e1e0d9"/><text x="318.0" y="173.0" font-size="12" fill="#898781" text-anchor="middle">—</text><g><title>A2C vs D3QN: -1.392 (95% CI -1.460 to -1.328)</title><rect x="375" y="147" width="110" height="44" rx="4" fill="#e1c2bf"/><text x="430.0" y="169.0" font-size="13" font-weight="600" fill="#0b0b0b" text-anchor="middle">-1.39</text><text x="430.0" y="183.0" font-size="10" fill="#0b0b0b" text-anchor="middle">[-1.46, -1.33]</text></g><g><title>A2C vs QR-DQN: -2.238 (95% CI -2.307 to -2.171)</title><rect x="487" y="147" width="110" height="44" rx="4" fill="#d9a6a4"/><text x="542.0" y="169.0" font-size="13" font-weight="600" fill="#0b0b0b" text-anchor="middle">-2.24</text><text x="542.0" y="183.0" font-size="10" fill="#0b0b0b" text-anchor="middle">[-2.31, -2.17]</text></g><g><title>A2C vs OpenAI-ES: +1.050 (95% CI +0.968 to +1.130)</title><rect x="599" y="147" width="110" height="44" rx="4" fill="#cbd5e1"/><text x="654.0" y="169.0" font-size="13" font-weight="600" fill="#0b0b0b" text-anchor="middle">+1.05</text><text x="654.0" y="183.0" font-size="10" fill="#0b0b0b" text-anchor="middle">[+0.97, +1.13]</text></g><text x="140" y="219.0" font-size="12" fill="#52514e" text-anchor="end">D3QN</text><g><title>D3QN vs PPO: -3.510 (95% CI -3.568 to -3.451)</title><rect x="151" y="193" width="110" height="44" rx="4" fill="#cb7d7c"/><text x="206.0" y="215.0" font-size="13" font-weight="600" fill="#ffffff" text-anchor="middle">-3.51</text><text x="206.0" y="229.0" font-size="10" fill="#ffffff" text-anchor="middle">[-3.57, -3.45]</text></g><g><title>D3QN vs A2C: +1.380 (95% CI +1.313 to +1.442)</title><rect x="263" y="193" width="110" height="44" rx="4" fill="#bfcddd"/><text x="318.0" y="215.0" font-size="13" font-weight="600" fill="#0b0b0b" text-anchor="middle">+1.38</text><text x="318.0" y="229.0" font-size="10" fill="#0b0b0b" text-anchor="middle">[+1.31, +1.44]</text></g><rect x="375" y="193" width="110" height="44" rx="4" fill="#fcfcfb" stroke="#e1e0d9"/><text x="430.0" y="219.0" font-size="12" fill="#898781" text-anchor="middle">—</text><g><title>D3QN vs QR-DQN: -0.873 (95% CI -0.943 to -0.808)</title><rect x="487" y="193" width="110" height="44" rx="4" fill="#e7d3d0"/><text x="542.0" y="215.0" font-size="13" font-weight="600" fill="#0b0b0b" text-anchor="middle">-0.87</text><text x="542.0" y="229.0" font-size="10" fill="#0b0b0b" text-anchor="middle">[-0.94, -0.81]</text></g><g><title>D3QN vs OpenAI-ES: +2.413 (95% CI +2.315 to +2.518)</title><rect x="599" y="193" width="110" height="44" rx="4" fill="#9ab3d2"/><text x="654.0" y="215.0" font-size="13" font-weight="600" fill="#0b0b0b" text-anchor="middle">+2.41</text><text x="654.0" y="229.0" font-size="10" fill="#0b0b0b" text-anchor="middle">[+2.32, +2.52]</text></g><text x="140" y="265.0" font-size="12" fill="#52514e" text-anchor="end">QR-DQN</text><g><title>QR-DQN vs PPO: -2.668 (95% CI -2.723 to -2.615)</title><rect x="151" y="239" width="110" height="44" rx="4" fill="#d49897"/><text x="206.0" y="261.0" font-size="13" font-weight="600" fill="#0b0b0b" text-anchor="middle">-2.67</text><text x="206.0" y="275.0" font-size="10" fill="#0b0b0b" text-anchor="middle">[-2.72, -2.61]</text></g><g><title>QR-DQN vs A2C: +2.221 (95% CI +2.160 to +2.289)</title><rect x="263" y="239" width="110" height="44" rx="4" fill="#a1b8d4"/><text x="318.0" y="261.0" font-size="13" font-weight="600" fill="#0b0b0b" text-anchor="middle">+2.22</text><text x="318.0" y="275.0" font-size="10" fill="#0b0b0b" text-anchor="middle">[+2.16, +2.29]</text></g><g><title>QR-DQN vs D3QN: +0.846 (95% CI +0.776 to +0.913)</title><rect x="375" y="239" width="110" height="44" rx="4" fill="#d2dae3"/><text x="430.0" y="261.0" font-size="13" font-weight="600" fill="#0b0b0b" text-anchor="middle">+0.85</text><text x="430.0" y="275.0" font-size="10" fill="#0b0b0b" text-anchor="middle">[+0.78, +0.91]</text></g><rect x="487" y="239" width="110" height="44" rx="4" fill="#fcfcfb" stroke="#e1e0d9"/><text x="542.0" y="265.0" font-size="12" fill="#898781" text-anchor="middle">—</text><g><title>QR-DQN vs OpenAI-ES: +3.222 (95% CI +3.122 to +3.332)</title><rect x="599" y="239" width="110" height="44" rx="4" fill="#7d9fc9"/><text x="654.0" y="261.0" font-size="13" font-weight="600" fill="#0b0b0b" text-anchor="middle">+3.22</text><text x="654.0" y="275.0" font-size="10" fill="#0b0b0b" text-anchor="middle">[+3.12, +3.33]</text></g><text x="140" y="311.0" font-size="12" fill="#52514e" text-anchor="end">OpenAI-ES</text><g><title>OpenAI-ES vs PPO: -5.942 (95% CI -6.029 to -5.852)</title><rect x="151" y="285" width="110" height="44" rx="4" fill="#b22e2e"/><text x="206.0" y="307.0" font-size="13" font-weight="600" fill="#ffffff" text-anchor="middle">-5.94</text><text x="206.0" y="321.0" font-size="10" fill="#ffffff" text-anchor="middle">[-6.03, -5.85]</text></g><g><title>OpenAI-ES vs A2C: -1.023 (95% CI -1.108 to -0.933)</title><rect x="263" y="285" width="110" height="44" rx="4" fill="#e5cecb"/><text x="318.0" y="307.0" font-size="13" font-weight="600" fill="#0b0b0b" text-anchor="middle">-1.02</text><text x="318.0" y="321.0" font-size="10" fill="#0b0b0b" text-anchor="middle">[-1.11, -0.93]</text></g><g><title>OpenAI-ES vs D3QN: -2.450 (95% CI -2.554 to -2.348)</title><rect x="375" y="285" width="110" height="44" rx="4" fill="#d69f9e"/><text x="430.0" y="307.0" font-size="13" font-weight="600" fill="#0b0b0b" text-anchor="middle">-2.45</text><text x="430.0" y="321.0" font-size="10" fill="#0b0b0b" text-anchor="middle">[-2.55, -2.35]</text></g><g><title>OpenAI-ES vs QR-DQN: -3.282 (95% CI -3.387 to -3.176)</title><rect x="487" y="285" width="110" height="44" rx="4" fill="#ce8483"/><text x="542.0" y="307.0" font-size="13" font-weight="600" fill="#ffffff" text-anchor="middle">-3.28</text><text x="542.0" y="321.0" font-size="10" fill="#ffffff" text-anchor="middle">[-3.39, -3.18]</text></g><rect x="599" y="285" width="110" height="44" rx="4" fill="#fcfcfb" stroke="#e1e0d9"/><text x="654.0" y="311.0" font-size="12" fill="#898781" text-anchor="middle">—</text><rect x="150" y="356" width="7" height="10" fill="#b22e2e"/><rect x="157" y="356" width="7" height="10" fill="#b53838"/><rect x="164" y="356" width="7" height="10" fill="#b84141"/><rect x="171" y="356" width="7" height="10" fill="#bb4b4a"/><rect x="178" y="356" width="7" height="10" fill="#be5554"/><rect x="185" y="356" width="7" height="10" fill="#c25e5d"/><rect x="192" y="356" width="7" height="10" fill="#c56867"/><rect x="199" y="356" width="7" height="10" fill="#c87271"/><rect x="206" y="356" width="7" height="10" fill="#cb7b7a"/><rect x="213" y="356" width="7" height="10" fill="#ce8584"/><rect x="220" y="356" width="7" height="10" fill="#d18e8d"/><rect x="227" y="356" width="7" height="10" fill="#d49896"/><rect x="234" y="356" width="7" height="10" fill="#d7a2a0"/><rect x="241" y="356" width="7" height="10" fill="#daabaa"/><rect x="248" y="356" width="7" height="10" fill="#ddb5b3"/><rect x="255" y="356" width="7" height="10" fill="#e0bfbc"/><rect x="262" y="356" width="7" height="10" fill="#e4c8c6"/><rect x="269" y="356" width="7" height="10" fill="#e7d2d0"/><rect x="276" y="356" width="7" height="10" fill="#eadcd9"/><rect x="283" y="356" width="7" height="10" fill="#ede5e2"/><rect x="290" y="356" width="7" height="10" fill="#f0efec"/><rect x="297" y="356" width="7" height="10" fill="#e5e8e9"/><rect x="304" y="356" width="7" height="10" fill="#dbe0e6"/><rect x="311" y="356" width="7" height="10" fill="#d0d9e2"/><rect x="318" y="356" width="7" height="10" fill="#c6d2df"/><rect x="325" y="356" width="7" height="10" fill="#bbcadc"/><rect x="332" y="356" width="7" height="10" fill="#b0c3d8"/><rect x="339" y="356" width="7" height="10" fill="#a6bcd5"/><rect x="346" y="356" width="7" height="10" fill="#9bb4d2"/><rect x="353" y="356" width="7" height="10" fill="#91adcf"/><rect x="360" y="356" width="7" height="10" fill="#86a6cc"/><rect x="367" y="356" width="7" height="10" fill="#7b9ec8"/><rect x="374" y="356" width="7" height="10" fill="#7197c5"/><rect x="381" y="356" width="7" height="10" fill="#668fc2"/><rect x="388" y="356" width="7" height="10" fill="#5c88be"/><rect x="395" y="356" width="7" height="10" fill="#5181bb"/><rect x="402" y="356" width="7" height="10" fill="#4679b8"/><rect x="409" y="356" width="7" height="10" fill="#3c72b5"/><rect x="416" y="356" width="7" height="10" fill="#316bb2"/><rect x="423" y="356" width="7" height="10" fill="#2763ae"/><rect x="430" y="356" width="7" height="10" fill="#1c5cab"/><text x="150" y="380" font-size="11" fill="#898781">-5.9</text><text x="290" y="380" font-size="11" fill="#898781" text-anchor="middle">0</text><text x="437" y="380" font-size="11" fill="#898781" text-anchor="end">+5.9 XI</text></svg>